<?xml version="1.0" encoding="UTF-8" standalone="no"?>
<!-- Generator: Adobe Illustrator 17.0.1, SVG Export Plug-In . SVG Version: 6.00 Build 0)  -->

<svg
   version="1.1"
   x="0px"
   y="0px"
   width="85.399994"
   height="85.399994"
   viewBox="0 0 85.399994 85.399994"
   enable-background="new 0 0 86 86"
   xml:space="preserve"
   id="svg4"
   xmlns="http://www.w3.org/2000/svg"
   xmlns:svg="http://www.w3.org/2000/svg"><defs
   id="defs4"><linearGradient
     id="SVGID_1_"
     gradientUnits="userSpaceOnUse"
     x1="0.71710002"
     y1="85.283302"
     x2="73.193901"
     y2="12.8066"
     gradientTransform="matrix(-1,0,0,1,85.7,-0.30000001)">
		<stop
   offset="0"
   style="stop-color:#a51d25;stop-opacity:1;"
   id="stop1" />
		
		<stop
   offset="1"
   style="stop-color:#69316c;stop-opacity:1;"
   id="stop3" />
	</linearGradient></defs>

<path
   fill="url(#SVGID_1_)"
   d="M 42.7,-1.1557291e-8 C 66.282,-1.1557291e-8 85.4,19.118 85.4,42.7 v 41.277 c 0,0.786 -0.637,1.423 -1.423,1.423 H 42.7 C 19.115,85.4 -1.1557291e-8,66.282 -1.1557291e-8,42.7 -1.1557291e-8,19.118 19.115,-1.1557291e-8 42.7,-1.1557291e-8 Z"
   id="path3"
   style="fill:url(#SVGID_1_)" />
<g
   id="g6"
   transform="matrix(-0.32815733,0,0,0.32815891,99.361942,4.7106531)">
	
	<g
   class="st1"
   id="g3"
   style="opacity:1">
		<path
   class="st2"
   d="m 201.8,4.7 c -14.1,0.8 -21.2,3.5 -24.8,5.5 3.1,1 6.2,2 9.2,3.1 3.3,-4.6 15.6,-8.6 15.6,-8.6 z"
   id="path2"
   style="fill:#d3312c;fill-opacity:1" />
		<path
   id="path3-3"
   style="fill:#d3312c;fill-opacity:1"
   class="st2"
   d="m 142.69972,6.0978556 c 27.8,0 55.49639,12.7036784 72.79639,22.0036784 0.7,0 1.40576,-0.10118 2.00576,-0.10118 29.74275,0 54.16803,23.31216 55.80998,52.738597 -0.037,-0.113291 -0.0754,-0.226155 -0.11309,-0.33925 0.1,1.2 0.19641,2.299638 0.19641,3.499638 0,5.3 -0.79621,10.50199 -2.19621,15.30199 0.0107,0.05358 0.0194,0.106975 0.0298,0.160698 -6.71921,23.366383 -28.2743,40.436293 -53.72685,40.436293 -5.5,0 -10.79606,-0.89738 -15.79606,-2.29738 7.4,4.7 16.19271,7.39805 25.59271,7.39805 22.94444,0 42.10625,-15.85588 47.24535,-37.15093 l 26.88425,26.87818 c -2.8e-4,0.002 2.8e-4,0.004 0,0.006 -9.1374,62.92203 -63.2978,111.25041 -128.76112,111.25041 h -50.66763 v -92.78208 c 0,0 -4.59443,77.80148 -32.294433,77.80148 H 78.200118 v -16.40306 h 9.701425 c -6.3,0 -8.701425,-5.9964 -9.701425,-11.7964 v -33.40131 h 9.701425 c -6.1,0 -8.599064,-6.00235 -9.499064,-11.80235 v -33.40131 h 9.695474 c -6,0 -8.499065,-5.49887 -9.499065,-10.99887 1.5,-34.800002 21.495762,-67.599681 55.095762,-83.699681 6.9,-3.3 14.00624,-5.696865 21.20624,-7.296865 -12,-5 -26.49738,-7.403997 -26.49738,-7.403997 17.7,-0.7 32.19812,1.901844 43.19812,5.201844 h 1.80339 C 162.1112,11.60454 142.72092,6.1038681 142.69972,6.0978556 Z" />
	</g>
	<path
   class="st3"
   d="m 130.7,128.9 c 2.3,-2.7 3.8,-6.1 3.8,-9.9 0,-8.2 -6.6,-14.8 -14.8,-14.8 -8.2,0 -14.8,6.6 -14.8,14.8 0,3.6 1.3,6.8 3.4,9.4 -0.1,-1.6 -0.2,-3 -0.3,-4.1 -0.1,-1.2 -0.2,-2.1 -0.3,-2.7 -0.1,-0.6 -0.1,-0.9 -0.1,-0.9 -0.1,-1.1 -0.1,-2.2 0,-3.3 0.8,-6.7 7,-11.5 13.7,-10.7 6.7,0.8 11.5,7 10.7,13.7 v 0.4 c 0,0 -0.1,0.4 -0.2,1.2 -0.1,0.7 -0.3,1.8 -0.5,3.2 -0.2,1 -0.4,2.3 -0.6,3.7 z"
   id="path4"
   style="opacity:1;fill:#a11c1b;fill-opacity:1;enable-background:new" />
	<path
   class="st3"
   d="m 142.3,75.3 c 26.1,-18.5 54.9,10.2 36.4,36.4 -0.5,0.7 -1.2,1.4 -1.9,1.9 -26.2,18.5 -54.9,-10.3 -36.4,-36.4 0.5,-0.7 1.1,-1.4 1.9,-1.9 z"
   id="path5"
   style="opacity:1;fill:#a11c1b;fill-opacity:1;enable-background:new" />
	<circle
   class="st0"
   cx="155.2"
   cy="84.300003"
   r="13.8"
   id="circle5"
   style="opacity:1;fill:#ffffff;enable-background:new" />
	<circle
   class="st4"
   cx="151.89999"
   cy="84.300003"
   r="6.4000001"
   id="circle6"
   style="opacity:1;fill:#a11c1b;fill-opacity:1;enable-background:new" />
	<path
   class="st0"
   d="m 107.5,117.4 c 0.8,-6.7 7,-11.5 13.7,-10.7 6.7,0.8 11.5,7 10.7,13.7 v 0.4 c 0,0 -0.1,0.4 -0.2,1.2 -0.1,0.7 -0.3,1.8 -0.5,3.2 -0.4,2.8 -1.1,6.6 -2.2,11.2 -2.2,9.1 -5.7,21.1 -11.6,32.3 -1.5,2.8 -3.2,5.5 -4.9,8.1 -1.8,2.5 -3.7,5 -5.8,7.1 -1,1.1 -2.1,2.1 -3.2,3 -1,1 -2.2,1.8 -3.3,2.6 -2.3,1.6 -4.6,2.7 -6.8,3.6 -2.2,0.8 -4.2,1.4 -6.1,1.6 -1.8,0.4 -3.4,0.3 -4.7,0.4 -2.7,-0.2 -4.1,-0.3 -4.1,-0.3 0,0 1.4,-0.3 3.9,-0.8 1.2,-0.4 2.8,-0.7 4.3,-1.5 1.6,-0.6 3.3,-1.6 5,-2.8 1.6,-1.3 3.3,-2.7 4.8,-4.5 0.8,-0.9 1.5,-1.8 2.2,-2.8 0.8,-1 1.4,-2.1 2,-3.2 1.2,-2.2 2.3,-4.6 3.2,-7.1 0.9,-2.5 1.7,-5.1 2.3,-7.8 2.4,-10.7 2.7,-21.9 2.5,-30.2 -0.1,-4.2 -0.4,-7.6 -0.6,-10 -0.1,-1.2 -0.2,-2.1 -0.3,-2.7 -0.1,-0.6 -0.1,-0.9 -0.1,-0.9 -0.2,-0.9 -0.2,-2 -0.2,-3.1 z"
   id="path1"
   style="opacity:1;fill:#ffffff;enable-background:new" />
</g></svg>
