<svg xmlns="http://www.w3.org/2000/svg" viewBox="0 0 32 32">
  <title>icon-s-bookmark</title>
  <g>
    <rect width="32" height="32" fill="#fff" fill-opacity="0"/>
    <path d="M20.81,10H11.19a1,1,0,1,1,0-2h9.63a1,1,0,0,1,0,2Z" fill="#fff"/>
    <path d="M20.81,14.62H11.19a1,1,0,0,1,0-2h9.63a1,1,0,0,1,0,2Z" fill="#fff"/>
    <path d="M26.85,29.74a1,1,0,0,1-.66-.25L16,20.82,5.81,29.48a1,1,0,0,1-1,.2c-.7-.22-.7-.76-.7-1.58,0-.63,0-1.88,0-4.38V4.48A2.41,2.41,0,0,1,6.44,2H25.56a2.41,2.41,0,0,1,2.29,2.5V23.73c0,2.5,0,3.75,0,4.38,0,.82,0,1.36-.7,1.58A1,1,0,0,1,26.85,29.74Zm-10.16-11,9.16,7.79c0-.7,0-1.62,0-2.84V4.48c0-.3-.18-.5-.29-.5H6.44c-.12,0-.29.2-.29.5V23.73c0,1.22,0,2.14,0,2.84l9.16-7.79h0a1.11,1.11,0,0,1,1.39,0Z" fill="#fff" opacity="0.6"/>
  </g>
</svg>
