<svg xmlns="http://www.w3.org/2000/svg" viewBox="0 0 64 64">
  <title>icon-m-bookmark</title>
  <g>
    <rect width="64" height="64" fill="#fff" fill-opacity="0"/>
    <path d="M42.75,55.81,33,46.62a1.39,1.39,0,0,0-1.9,0l-9.9,9.15a4.42,4.42,0,0,1-5.21.15,5.18,5.18,0,0,1-2-4.07V12.21A5.24,5.24,0,0,1,19.21,7H44.79A5.24,5.24,0,0,1,50,12.21V51.84a5.18,5.18,0,0,1-2,4.07A4.58,4.58,0,0,1,42.75,55.81ZM19.21,9A3.18,3.18,0,0,0,16,12.15s0,0,0,.06V51.84a3.15,3.15,0,0,0,0,.43,2.65,2.65,0,0,0,4.47,1.39l9-8.65a3.57,3.57,0,0,1,4.94,0l9,8.65a2.65,2.65,0,0,0,4.47-1.39,3.15,3.15,0,0,0,0-.43V12.21A3.18,3.18,0,0,0,44.79,9Z" transform="translate(0 0)" fill="#fff"/>
    <g opacity="0.6">
      <path d="M43.45,25.65,38.83,29A2.34,2.34,0,0,0,38,31.43l1.77,5.44a1.6,1.6,0,0,1-.06,1.46.92.92,0,0,1-.71.37,1.94,1.94,0,0,1-1.1-.44L33.27,34.9a2.46,2.46,0,0,0-2.54,0L26.1,38.26c-.8.58-1.49.57-1.85.07a1.6,1.6,0,0,1-.06-1.46L26,31.43A2.38,2.38,0,0,0,25.17,29l-4.63-3.36c-.84-.61-.88-1.15-.77-1.49s.46-.75,1.5-.75H27a2.38,2.38,0,0,0,2.06-1.49l1.77-5.44c.32-1,.82-1.19,1.18-1.19s.86.21,1.18,1.19L35,21.91a2.39,2.39,0,0,0,2,1.5h5.72c1,0,1.39.41,1.5.75S44.29,25,43.45,25.65Z" transform="translate(0 0)" fill="#fff"/>
    </g>
  </g>
</svg>
