<svg xmlns="http://www.w3.org/2000/svg" viewBox="0 0 64 64">
  <title>icon-m-bookmark</title>
  <g>
    <rect width="64" height="64" fill="#fff" fill-opacity="0"/>
    <path d="M42.75,55.81l-9.8-9.19a1.39,1.39,0,0,0-1.9,0l-9.9,9.15a4.42,4.42,0,0,1-5.21.15,5.18,5.18,0,0,1-2-4.07V12.21A5.24,5.24,0,0,1,19.21,7H44.79A5.24,5.24,0,0,1,50,12.21V51.84a5.18,5.18,0,0,1-2,4.07A4.58,4.58,0,0,1,42.75,55.81ZM19.21,9A3.18,3.18,0,0,0,16,12.21V51.84a3.15,3.15,0,0,0,0,.43,2.65,2.65,0,0,0,4.47,1.39l9-8.65a3.57,3.57,0,0,1,4.94,0l9,8.65a2.65,2.65,0,0,0,4.47-1.39,3.15,3.15,0,0,0,0-.43V12.21A3.18,3.18,0,0,0,44.79,9Z" transform="translate(0 0)" fill="#fff"/>
    <g opacity="0.6">
      <path d="M31.38,16.66c.34-1,.9-1,1.24,0l1.77,5.44A2.94,2.94,0,0,0,37,24h5.72c1.1,0,1.27.53.38,1.18l-4.63,3.36a2.94,2.94,0,0,0-1,3.08l1.77,5.44c.34,1-.11,1.37-1,.73l-4.63-3.36a2.94,2.94,0,0,0-3.24,0l-4.63,3.36c-.89.65-1.34.32-1-.73l1.77-5.44a2.94,2.94,0,0,0-1-3.08L20.9,25.18c-.89-.65-.72-1.18.38-1.18H27a2.94,2.94,0,0,0,2.62-1.9Z" transform="translate(0 0)" fill="#fff"/>
      <path d="M39,38.7a1.94,1.94,0,0,1-1.1-.44L33.27,34.9a2.46,2.46,0,0,0-2.54,0L26.1,38.26c-.8.58-1.49.57-1.85.07a1.6,1.6,0,0,1-.06-1.46L26,31.43A2.37,2.37,0,0,0,25.17,29l-4.63-3.36c-.84-.61-.88-1.15-.77-1.49s.46-.75,1.5-.75H27a2.37,2.37,0,0,0,2.06-1.49l1.77-5.44c.32-1,.82-1.19,1.18-1.19s.86.21,1.18,1.19l1.77,5.44A2.38,2.38,0,0,0,37,23.41h5.72c1,0,1.39.41,1.5.75s.07.88-.77,1.49L38.83,29A2.34,2.34,0,0,0,38,31.43l1.77,5.44a1.6,1.6,0,0,1-.06,1.46A.91.91,0,0,1,39,38.7Zm-7-5.36a3.35,3.35,0,0,1,2,.6l4.63,3.36.14.09,0-.16L36.92,31.8a3.52,3.52,0,0,1,1.22-3.74l4.63-3.36.13-.1H37a3.52,3.52,0,0,1-3.18-2.31l-1.77-5.44L32,16.68l-.06.16-1.77,5.44A3.52,3.52,0,0,1,27,24.59H21.11l.13.1,4.63,3.36a3.51,3.51,0,0,1,1.22,3.74l-1.77,5.44,0,.16.14-.09L30,33.94A3.36,3.36,0,0,1,32,33.35Z" transform="translate(0 0)" fill="#fff"/>
    </g>
  </g>
</svg>
