<svg xmlns="http://www.w3.org/2000/svg" viewBox="0 0 32 32">
  <title>icon-s-bot</title>
  <g>
    <path d="M27.28,14.83a5,5,0,0,0-5-4.72H9.7a5,5,0,0,0-5,4.72,1.32,1.32,0,0,0,0,.28V24a1.32,1.32,0,0,0,0,.28A5,5,0,0,0,9.7,29H22.3a5,5,0,0,0,5-4.72,1.32,1.32,0,0,0,0-.28V15.11A1.32,1.32,0,0,0,27.28,14.83ZM10.85,21.32a2.81,2.81,0,1,1,2.81-2.81A2.81,2.81,0,0,1,10.85,21.32Zm10.3,0A2.81,2.81,0,1,1,24,18.51,2.81,2.81,0,0,1,21.15,21.32Z" fill="#fff"/>
    <g opacity="0.6">
      <path d="M17.67,5.06v5h-4v-5a2,2,0,0,1,4,0Z" fill="#fff"/>
    </g>
    <path d="M30.43,19.55c0,2.61-1.4,4.73-3.13,4.73h0a1.32,1.32,0,0,0,0-.28V15.11a1.32,1.32,0,0,0,0-.28h0C29,14.83,30.43,16.94,30.43,19.55Z" fill="#fff" opacity="0.6"/>
    <path d="M4.7,24a1.32,1.32,0,0,0,0,.28h0c-1.73,0-3.13-2.12-3.13-4.73S3,14.83,4.7,14.83h0a1.32,1.32,0,0,0,0,.28Z" fill="#fff" opacity="0.6"/>
  </g>
</svg>
