<svg xmlns="http://www.w3.org/2000/svg" viewBox="0 0 32 32">
  <title>icon-s-bookmark</title>
  <g>
    <rect width="32" height="32" fill="#fff" fill-opacity="0"/>
    <path d="M26.85,29.74a1,1,0,0,1-.66-.25L16,20.82,5.81,29.48a1,1,0,0,1-1,.2c-.7-.22-.7-.76-.7-1.58,0-.63,0-1.88,0-4.38V4.48A2.41,2.41,0,0,1,6.44,2H25.56a2.41,2.41,0,0,1,2.29,2.5V23.73c0,2.5,0,3.75,0,4.38,0,.82,0,1.36-.7,1.58A1,1,0,0,1,26.85,29.74ZM16,18.55a1.07,1.07,0,0,1,.69.24l9.16,7.79c0-.7,0-1.62,0-2.84V4.48c0-.3-.18-.5-.29-.5H6.44c-.12,0-.29.2-.29.5V23.73c0,1.22,0,2.14,0,2.84l9.16-7.79A1.07,1.07,0,0,1,16,18.55Z" fill="#fff"/>
  </g>
</svg>
